<?xml version="1.0" encoding="UTF-8"?>
<svg id="Layer_1" xmlns="http://www.w3.org/2000/svg" version="1.1" viewBox="0 0 1080 1080">
  <!-- Generator: Adobe Illustrator 29.1.0, SVG Export Plug-In . SVG Version: 2.1.0 Build 142)  -->
  <defs>
    <style>
      .st0 {
        fill: #3277d2;
      }
    </style>
  </defs>
  <g id="NZuqYJ">
    <path class="st0" d="M1048.2,570.2l-178.6-372.4c-.6-4,.1-2.6,2.9-2.9,9.1-1.2,27,3.4,32-8,3.2-7.3,3.4-25.7-1.2-32.7-.8-1.2-8.2-7.2-8.8-7.2h-310.4v-82.8c0-11.3-13.7-26.2-24.5-29.4-10.4-3.1-35-3-44.8,2-5.4,2.8-18.6,17.8-18.6,23.4v86.8H193.8c-4.5,0-13.9,7.1-16.6,11.3-11.3,17.5,0,33.3,18.8,36.4,3.9.7,16.3-2.1,14.8,3.1-50.5,105-89.5,215.1-134.8,322.4-14,33.1-34,69.1-45.8,101.9-4.3,11.8-6.4,21-5,33.9h395.3c2.7-29.6-16-55.4-26.9-81.9-39.9-97.3-76.4-196.9-117.9-293.3-12.4-28.9-29.3-56.2-38.8-85.9,2.7,1.4,5.1,0,7,0h250.5v732.6c-54.6,10.4-120.6,33.6-157.6,76.9-3.4,3.9-8.7,10-10,14.9h427.2c-38.6-54.5-105.5-80.6-169.7-91.8V197.9c0-.2,2.8-3,3-3h256.5l-180,379.9c-4.1,5-9.4,35.3-2.6,35.3h391.3c7.6,0-.9-34.8-4-39.9ZM396.4,634.1H51.1L224.7,222.9l171.7,411.2ZM683.9,586.2l172.7-363.3,172.7,363.3h-345.4ZM661.9,618.1c8.9,63.3,70.8,110.9,129.3,127.2,103.7,28.9,233.8-15.3,261.9-127.2h-391.3ZM27.1,666c36.1,141.5,235.7,175.1,338.4,85.9,24.4-21.2,48.1-53.2,52.8-85.9H27.1ZM754.9,1025.2h-429.4c-9.1.9-14.6,14.2-16.9,22.1h463.1c-3.4-7.3-8.4-21.1-16.8-22.1Z"/>
  </g>
</svg>